<?xml version="1.0" encoding="utf-8"?>
<!-- Generator: Adobe Illustrator 21.1.0, SVG Export Plug-In . SVG Version: 6.00 Build 0)  -->
<svg version="1.1" id="Layer_1" xmlns="http://www.w3.org/2000/svg" xmlns:xlink="http://www.w3.org/1999/xlink" x="0px" y="0px"
	 viewBox="0 0 150 150" style="enable-background:new 0 0 150 150;" xml:space="preserve">
<style type="text/css">
	.st0{fill:#2F2B2C;}
	.st1{fill:#F8F6F5;}
	.st2{fill:#E03C40;}
	.st3{fill:#0F9E58;}
	.st4{fill:#E14445;}
	.st5{fill:#FCFAF9;}
	.st6{fill:#FBF8F7;}
	.st7{fill:#312929;}
	.st8{fill:#352B2B;}
	.st9{fill:#3A3030;}
	.st10{fill:#4A110E;}
	.st11{fill:#4D3D3C;}
	.st12{fill:#5D4644;}
	.st13{fill:#644F4D;}
	.st14{fill:#DD3E41;}
</style>
<g>
	<path class="st0" d="M17.2,121.3c-1-0.5-1.4-1.4-1.6-2.5c-1.7-9.4-3.5-18.8-5.2-28.3C9.2,84.1,8,77.7,6.8,71.2
		c-0.1-0.7,0-1.3,0.4-1.9c2.6-3.9,5.9-7.2,9.4-10.3c7.9-6.8,16.9-11.6,26.8-14.8c5.7-1.8,11.5-3.1,17.5-3.8c2.5-0.3,5-0.6,7.5-0.7
		c0.5,0,0.7-0.1,0.6-0.7c-0.1-2.5,0.6-4.9,1.5-7.2c0.3-0.6,0.5-1.3,0.6-2c0.1-0.8,1.1-1.4,1.9-1.2c3.9,1.4,7.7,3,10.5,6.2
		c1.2,1.4,2.2,2.9,2.9,4.6c0.2,0.5,0.4,0.8,1,0.7c0.4,0,0.9,0.1,1.3,0.2c0.9,0.2,1.7,0.1,2.6-0.4c2.2-1.3,4.7-1.8,7.3-2
		c2.3-0.2,4.6,0,6.9,0.4c0.5,0.1,0.9,0,1.4,0.1c1.5,0.2,2.2,1.7,1.4,3c-0.6,0.9-0.7,1.9-1.2,2.8c-0.2,0.4,0.2,0.4,0.4,0.5
		c1.6,0.6,3.2,1.2,4.7,1.8c8.8,3.7,16.7,8.8,23.4,15.6c2.3,2.3,4.3,4.8,6.1,7.5c0.5,0.8,0.7,1.5,0.5,2.5c-1.4,7.6-2.7,15.3-4.1,22.9
		c-1.4,8.1-2.9,16.2-4.4,24.3c-0.3,1.5-1.4,2.1-2.8,1.7c-7.1-2.3-14.4-3.8-21.7-5c-5.4-0.9-10.8-1.5-16.2-2
		c-3.3-0.3-6.6-0.5-9.9-0.6c-3.4-0.1-6.7-0.3-10.1-0.2c-4.8,0.1-9.6,0.3-14.3,0.7c-3.3,0.3-6.5,0.6-9.8,1c-10.2,1.3-20.4,3-30.2,6.1
		c-0.2,0.1-0.5,0-0.6,0.2C17.8,121.3,17.5,121.3,17.2,121.3z M7.8,70.8c0,0,0,0.2,0,0.3c1.1,6.1,2.3,12.2,3.4,18.3
		c1.8,9.9,3.7,19.8,5.5,29.6c0.2,1.1,0.6,1.4,1.6,1c3.4-1.1,6.9-2,10.5-2.8c8.9-2,17.8-3.2,26.8-4.1c7.6-0.7,15.3-1.1,22.9-1
		c8.7,0.2,17.3,0.9,25.9,2.1c9.1,1.3,18,3,26.8,5.8c0.8,0.3,1.3,0,1.4-0.9c1-5.5,2-11,3-16.5c1.8-10.3,3.7-20.5,5.5-30.8
		c0.1-0.5,0-0.9-0.2-1.3c-0.9-1.4-1.9-2.7-2.9-4c-6.3-7.5-14-13.1-22.8-17.3c-2.9-1.4-5.9-2.6-9-3.6c-0.5-0.1-0.6-0.3-0.3-0.7
		c0.4-0.9,0.8-1.9,1-2.9c0.1-0.3,0.2-0.6,0.4-0.9c0.5-0.8,0.2-1.3-0.7-1.5c-0.4-0.1-0.9,0-1.3-0.1c-1.9-0.3-3.8-0.5-5.7-0.4
		c-3,0.1-5.9,0.7-8.5,2.4c-0.4,0.2-0.8,0.3-1.2,0.3c-1.1-0.2-2.2-0.3-3.3-0.4c-0.5,0-0.8-0.2-0.9-0.7c0-0.3-0.2-0.5-0.3-0.8
		c-2.4-5.5-7.2-8.2-12.6-10c-0.3-0.1-0.6,0.1-0.6,0.4c0,0.6-0.2,1-0.5,1.5c-1.1,2.7-1.8,5.5-1.5,8.4c0,0.5-0.2,0.5-0.6,0.5
		c-8,0.4-15.8,1.5-23.5,3.8c-11.6,3.4-22,8.8-30.9,17.1c-2.6,2.4-5,5.1-7,8C8,70,7.8,70.3,7.8,70.8z"/>
	<path class="st1" d="M7.8,70.8c0-0.5,0.2-0.8,0.4-1.1c2-2.9,4.4-5.6,7-8c8.9-8.3,19.3-13.7,30.9-17.1c7.7-2.3,15.5-3.4,23.5-3.8
		c0.4,0,0.6,0,0.6-0.5c-0.3-3,0.4-5.7,1.5-8.4c0.2-0.5,0.4-1,0.5-1.5c0-0.4,0.3-0.5,0.6-0.4c5.4,1.8,10.1,4.5,12.6,10
		c0.1,0.2,0.2,0.5,0.3,0.8c0.1,0.5,0.4,0.7,0.9,0.7c1.1,0.1,2.2,0.2,3.3,0.4c0.4,0.1,0.8,0,1.2-0.3c2.6-1.6,5.5-2.3,8.5-2.4
		c1.9-0.1,3.8,0.1,5.7,0.4c0.4,0.1,0.9,0,1.3,0.1c0.9,0.1,1.2,0.7,0.7,1.5c-0.2,0.3-0.3,0.5-0.4,0.9c-0.3,1-0.6,1.9-1,2.9
		c-0.2,0.5-0.1,0.6,0.3,0.7c3.1,1,6.1,2.2,9,3.6c8.8,4.2,16.5,9.8,22.8,17.3c1.1,1.3,2,2.6,2.9,4c0.3,0.4,0.3,0.8,0.2,1.3
		c-1.8,10.3-3.7,20.5-5.5,30.8c-1,5.5-2,11-3,16.5c-0.1,0.8-0.6,1.1-1.4,0.9c-8.7-2.8-17.7-4.5-26.8-5.8c-8.6-1.2-17.2-1.9-25.9-2.1
		c-7.7-0.1-15.3,0.3-22.9,1c-9,0.8-18,2.1-26.8,4.1c-3.5,0.8-7,1.7-10.5,2.8c-1,0.3-1.4,0.1-1.6-1c-1.8-9.9-3.7-19.8-5.5-29.6
		C10.1,83.3,9,77.2,7.8,71.1C7.8,71,7.8,70.8,7.8,70.8z M79.6,54.6c0.1-0.5-0.1-0.7-0.6-0.9c-4.5-2.2-7.5-5.5-8.4-10.5
		c-0.1-0.4-0.3-0.6-0.7-0.5c-6,0.3-11.9,1-17.8,2.3c-11.3,2.5-21.7,7-30.9,14.1c-4.2,3.2-8,6.9-11.1,11.2c-0.3,0.3-0.3,0.7-0.3,1.1
		c2.9,15.3,5.7,30.6,8.5,45.9c0.1,0.7,0.3,0.7,0.9,0.5c5.8-1.8,11.7-3.1,17.7-4.1c7.4-1.3,14.8-2.2,22.2-2.8
		c6.7-0.5,13.4-0.8,20.1-0.6c8.8,0.2,17.6,0.9,26.4,2.2c8.4,1.2,16.8,2.8,24.9,5.3c0.5,0.2,0.7,0,0.8-0.5
		c2.7-15.1,5.4-30.1,8.1-45.2c0.1-0.5,0-0.9-0.3-1.4c-1.1-1.6-2.3-3.1-3.5-4.5c-8.3-9.1-18.5-15.3-30.1-19.2c-0.4-0.1-0.6,0-0.7,0.3
		c-0.9,1.6-1.9,3.1-3.2,4.5C98.2,55,94.6,57,90,56.5c-1.6-0.2-3.1-0.6-4.3-1.8c-0.4-0.5-0.6-0.4-1,0c-1.6,1.5-2.8,3.3-4,5.1
		c-0.3,0.6-0.7,0.7-1.3,0.4c-0.6-0.3-0.9-0.6-0.7-1.3C79.2,57.5,79.5,56.1,79.6,54.6z M100.2,44.3c-1.5,0.9-2.8,1.6-4.1,2.4
		c-3.1,1.9-6.2,3.8-9.1,6.1c-0.4,0.3-0.4,0.6-0.1,1c0.6,0.7,1.5,1.1,2.4,1.3c3.3,0.6,6.2-0.3,8.8-2.2c4-2.9,6.3-7.1,7.8-11.7
		c0.1-0.4,0-0.6-0.4-0.6c-0.5,0-1,0.1-1.4,0c-2.1-0.2-4.1-0.3-6.2,0c-2.8,0.3-5.5,1.2-7.7,3.1c-2,1.7-3.3,3.9-4,6.4
		c-0.1,0.2-0.1,0.6,0,0.7c0.2,0.2,0.4-0.2,0.6-0.3c3.6-2.6,7.4-4.7,11.7-5.9C99.1,44.4,99.6,44.2,100.2,44.3z M81.7,51.8
		c0.5-0.7,1-1.4,1.5-2.2c1.3-2.2,1.9-4.6,1.4-7.1c-0.8-3.7-2.9-6.4-6-8.6c-1.4-1-2.9-1.6-4.4-2.3c-0.6-0.3-0.8-0.1-1,0.4
		c-0.8,1.7-1.2,3.5-1.5,5.3c-0.6,4.8,0.6,9,4.2,12.3c1.1,1.1,2.4,1.9,3.9,2.7c-0.1-1.9-0.1-3.6-0.5-5.3c-0.6-3.3-1.6-6.5-2.9-9.6
		c-0.1-0.1-0.3-0.3-0.1-0.5c0.2-0.1,0.3,0.1,0.4,0.2c1.9,2.1,3.3,4.5,3.9,7.3C81.1,46.9,81.6,49.3,81.7,51.8z M84.6,50
		c-0.8,1.2-1.7,2.3-2.9,3c-0.3,0.2-0.3,0.4-0.3,0.6c-0.1,0.7-0.2,1.5-0.5,2.2c-0.1,0.2-0.2,0.3,0,0.4c0.2,0.1,0.3-0.1,0.4-0.2
		c0.9-1.2,1.9-2.3,2.9-3.3c0.2-0.2,0.3-0.4,0.3-0.6C84.5,51.5,84.6,50.8,84.6,50z M88.5,43.4c-0.8-0.1-1.4-0.2-2.1-0.3
		c-0.3,0-0.4,0-0.4,0.3c0,1.2-0.1,2.4-0.3,3.6C86.6,45.7,87.4,44.5,88.5,43.4z"/>
	<path class="st2" d="M79.6,54.6c-0.1,1.5-0.4,2.9-0.7,4.3c-0.2,0.7,0.1,1,0.7,1.3c0.6,0.3,0.9,0.1,1.3-0.4c1.1-1.8,2.4-3.6,4-5.1
		c0.4-0.4,0.6-0.4,1,0c1.1,1.3,2.7,1.7,4.3,1.8c4.6,0.5,8.3-1.4,11.4-4.6c1.3-1.3,2.3-2.8,3.2-4.5c0.2-0.3,0.3-0.4,0.7-0.3
		c11.6,3.9,21.8,10.1,30.1,19.2c1.3,1.4,2.4,2.9,3.5,4.5c0.3,0.4,0.4,0.8,0.3,1.4c-2.7,15.1-5.4,30.1-8.1,45.2
		c-0.1,0.5-0.2,0.6-0.8,0.5c-8.1-2.5-16.5-4.1-24.9-5.3c-8.8-1.2-17.6-2-26.4-2.2c-6.7-0.1-13.4,0.1-20.1,0.6
		c-7.4,0.6-14.8,1.5-22.2,2.8c-6,1-11.9,2.3-17.7,4.1c-0.6,0.2-0.8,0.2-0.9-0.5c-2.8-15.3-5.7-30.6-8.5-45.9c-0.1-0.5,0-0.8,0.3-1.1
		c3.1-4.3,6.9-8,11.1-11.2c9.2-7.1,19.6-11.6,30.9-14.1c5.9-1.3,11.8-2.1,17.8-2.3c0.4,0,0.6,0.1,0.7,0.5c0.9,5,3.9,8.3,8.4,10.5
		C79.4,53.9,79.7,54.2,79.6,54.6z M112.2,65.1L112.2,65.1c-0.1,0-0.2,0-0.3,0.2l0,0c-0.3-0.1-0.6,0.1-0.8,0.3
		c-0.9,0.6-1.8,1.3-2.7,1.9c0.6-1.2,1.1-2.4,1.7-3.5c1.1-2,2.4-3.9,3.2-6.1c0.4-1,0.4-1.9-0.2-2.8c-1-1.4-2.4-2.2-4.1-2.6
		c-0.5-0.1-1,0-1.2,0.5c-0.1,0-0.3,0-0.4,0c-0.3,0.1-0.7,0.1-0.7,0.5c-0.1,0.3,0.2,0.5,0.4,0.6c0.3,0.1,0.2,0.3,0.1,0.5
		c-0.6,1.3-1.1,2.6-1.7,3.8c-0.7,1.6-1.6,3.1-2.3,4.7c-1.6,3.6-3.2,7.1-4.6,10.8c-0.8,2.3-1.8,4.7-2.4,7.1c-0.4,1.8-0.2,3.3,1.3,4.4
		c1,0.7,1.5,0.6,2.2,0c0.9-0.1,1.5-0.7,1.9-1.4c0.8-1.6,1.5-3.2,2.3-4.8c0.9-1.9,1.9-3.9,3-5.7c1-1.6,2.1-3.2,3.4-4.6
		c1.1-1.1,2.2-2.3,3.6-2.9c0.5-0.1,0.7,0.1,0.7,0.7c0,0.4-0.1,0.7-0.3,1c-0.8,1.8-1.9,3.4-2.5,5.3c-0.4,1.2-0.8,2.4-1.2,3.6
		c-0.8,2-1.4,4-1.8,6.2c-0.3,1.8-0.2,3.3,1.5,4.4c0.9,0.6,2.1,0.6,2.6,0c0.8,0,1.3-0.4,1.7-1c0.8-1.1,1.4-2.2,2.3-3.3
		c1.1-1.3,2.1-2.7,3.6-3.6c0.6-0.4,1.2-0.7,1.8-1c0.3-0.1,0.5-0.3,0.4-0.7c-0.1-0.4-0.5-0.3-0.7-0.3c-0.3,0-0.6,0.1-0.8,0.2
		c-1.1,0.4-2.2,0.9-3.3,1.6c-0.8,0.2-1.3,0.9-2,1.2c0.4-1.4,0.8-2.8,1.4-4.2c0.7-1.8,1.5-3.5,2.2-5.3c0.7-1.6,0.8-3.2-0.3-4.8
		c-0.9-1.3-2.2-2.2-3.8-2.2c-1.2,0-2.1,0.6-3.2,1.1C112.3,65.1,112.3,65.1,112.2,65.1z M87.7,81.8c-0.1,0-0.2,0-0.1,0.1l0,0
		c-0.3,0-0.6,0.1-0.8,0.4c-0.5,0.2-1,0.3-1.6,0.4C83.5,83,82,82.8,81,81.2c-0.1-0.2-0.3-0.3-0.6-0.3c-0.2,0.1-0.4,0.2-0.4,0.5
		c0,0.2,0,0.3-0.1,0.5c-0.5-0.5-1-0.5-1.1-0.1c-0.1,0.7-0.3,1.4,0.1,2c0.8,1.4,2.2,2,3.6,2.2c2.2,0.3,4.5,0.1,6.6-0.7
		c0.5-0.2,0.9-0.4,1.4-0.5c1.1-0.3,2.1-0.7,3.1-1.4c1.7-1.2,2.3-3.5,1.2-5.2c-1.3-1.9-2.7-3.7-3.9-5.7c-0.8-1.2-1-2.5-0.2-3.7
		c0.5-0.7,1.2-1.2,1.9-1.5c0.6-0.1,1.1-0.2,1.7-0.4c0.3,0,0.7-0.1,0.3,0.4c-0.3,0.5-0.5,1.1-0.4,1.7c0.1,0.5,0.3,0.8,0.8,0.9
		c0.6,0.1,0.6-0.4,0.8-0.7c0.3,0.1,0.8,0.4,1-0.1c0.6-1.4,1.9-2,3.2-2.4c0.5-0.1,0.7-0.5,0.8-1c0.1-0.8-0.5-1.3-0.9-1.7
		c-0.3-0.3-0.8,0-1.1,0.2c-0.1,0.1-0.3,0.1-0.4,0.2c-0.3,0.3-0.5,0.1-0.8-0.1c-1.3-1-2.7-1.5-4.4-1.6c-2.2,0-4.2,0.5-6,1.7
		c-0.2,0-0.4,0.1-0.6,0.2c-2.7,1.7-3.3,5.6-1.3,8.1c1.1,1.5,2.2,2.9,3.3,4.5c0.7,1,1.1,2.1,0.2,3.2c-0.3,0.4-0.6,0.8-0.9,1.1
		C87.9,81.6,87.7,81.7,87.7,81.8L87.7,81.8z M48.9,69C48.9,69,48.9,68.9,48.9,69c0.1-0.1,0.3-0.1,0.4-0.1c0.3,0,0.6,0,0.7-0.3
		c0.1-0.3-0.1-0.5-0.3-0.7c-0.6-0.7-1.5-0.7-2.3-0.6c-1.7,0.2-3.4,0.6-5,1c-0.8,0.2-1.6,0.6-2.5,0.6c0-0.3,0.1-0.4,0.2-0.6
		c1.1-2,2.2-4,3.1-6.1c0.4-1,0.8-1.9,0.9-3c0.1-1.2,0-1.2,1.1-1.6c0.2-0.1,0.4-0.1,0.6-0.2c0.7-0.2,1.5-0.2,2.1-0.7l0,0
		c1.1-0.2,2.1-0.4,3.1-0.8c0.8-0.2,1.6-0.4,2.4-0.5c1.5-0.3,3-0.5,4.5-0.5c1.1-0.1,2.2-0.1,3.3,0.1c0.3,0,0.5,0.1,0.6,0.4
		c0.1,0.5,0.4,0.5,0.8,0.2c0.2-0.1,0.3-0.3,0.5-0.4c0.3,0.2,0.5,0,0.7-0.1c0.4-0.3,0.8-0.7,1.1-1.2c0.5-0.8,0.1-1.7-0.8-2.2
		c-1.4-0.6-2.8-0.8-4.3-0.9c-1-0.1-2.1,0.1-3.1,0.1c-2.2,0-4.4,0.4-6.5,0.8c-1.2,0.2-2.4,0.6-3.6,0.8c-2,0.4-4,1-6,1.6
		c-2,0.6-4,1.3-6,1.7c-0.3,0.1-0.6,0.1-0.9-0.1c-0.7-0.4-0.9-0.4-1.3,0.4c-0.3-0.2-0.6-0.2-0.9,0.1c-0.3,0.3-0.2,0.6-0.1,0.9
		c0.1,0.5,0.4,0.9,0.8,1.3c0.9,0.9,2,1.2,3.2,1.3c0.7,0,1.3-0.2,2.1-0.3c-1.8,3.9-3.5,7.7-4.9,11.6c-0.2,0.1-0.5,0.1-0.7,0.3
		c-0.5,0.2-1.2,0.2-1.6,0.7c-0.1,0-0.3,0.1-0.4,0.1c-0.9,0.2-1.1,0.8-0.4,1.5c0.4,0.4,0.9,0.5,1.5,0.5c0.2,0,0.5-0.1,0.4,0.3
		c-0.5,1.6-0.9,3.2-1.5,4.7c-0.8,2.1-1.4,4.2-1.2,6.5c0.1,1.3,0.7,2.3,1.9,2.9c0.8,0.4,1.7,0.4,2.5,0.4c0.3,0,0.6-0.2,0.8-0.5
		c0.2,0,0.4,0,0.6-0.1c0.4-0.2,0.9-0.4,0.7-0.9c-0.5-0.9-0.3-1.7-0.2-2.7c0.5-4.1,1.8-7.9,3.5-11.7c0.2-0.5,0.5-0.9,0.9-1.1
		c0.9-0.4,1.7-0.8,2.6-0.9c0.7,0,1.4-0.3,2.1-0.5c1-0.2,2-0.4,2.8-0.9c0.2-0.1,0.4-0.2,0.7-0.2C48,69.3,48.6,69.6,48.9,69L48.9,69z
		 M72.2,82.5c-0.2,0-0.3,0.1-0.4,0.1c-0.6,0.4-1.2,0.7-2,0.8c-1,0.2-1.4-0.1-1.7-1.1c-0.3-1.6-0.1-3.1,0.3-4.7
		c0.7-0.2,1.4-0.3,2-0.7c0.2-0.1,0.4-0.2,0.7-0.3c2.4-0.8,4.6-1.9,6.5-3.4c1.1-0.9,2.2-1.8,2.8-3.2c0.4-1,0.6-2-0.2-2.9
		c-1.2-1.2-2.4-2.3-3.8-3.4c-0.4-0.3-0.9-0.6-1.5-0.5c-1.6,0.2-3.1,0.8-4.5,1.8c-0.3-0.1-0.5,0.1-0.7,0.3c-1.2,0.9-2.4,1.9-3.3,3.2
		c-1.5,2-2.6,4.2-3.4,6.6c-0.4-0.2-0.7-0.4-1-0.7c-0.2-0.2-0.4-0.5-0.8-0.4c-0.4,0.1-0.3,0.5-0.4,0.8c-0.8-0.5-1.1-0.4-1.2,0.2
		c-0.1,0.7,0.5,1.8,1.2,2.1c0.4,0.2,0.8,0.3,1.2,0.4c0.3,0.1,0.4,0.2,0.3,0.5c0,0.6,0,1.2,0,1.8c0.1,2.3,0.9,4.1,3,5.1
		c0.6,0.3,1.1,0.5,1.7,0.6c1.5,0.3,3,0.3,4.4-0.4c0.2-0.3,0.5-0.1,0.7-0.2c1.9-0.7,3.6-1.7,5-3.1c2-2,3.5-4.3,4.6-7
		c0.2-0.4,0.2-0.8-0.1-1c-0.3-0.2-0.7-0.1-1,0.2c-0.1,0.1-0.2,0.2-0.2,0.2c-0.6-0.2-1,0.2-1.3,0.7c-0.9,1.5-2,2.7-3.2,3.9
		c-0.8,0.9-1.8,1.6-2.6,2.4C72.9,81.9,72.5,82,72.2,82.5L72.2,82.5z M62.2,99.3c0.6,0,1.1-0.2,1.5-0.5c1.1-0.4,2.1-1,3.1-1.8
		c1.7-1.5,2-4.4,0-5.9c-0.9-0.7-2-1-3.1-1.2c-1.9-0.4-3.9-0.2-5.8,0c-0.6,0.1-1.2,0-1.7,0.6c-0.1,0-0.3,0.1-0.4,0.1
		c-0.3,0-0.6,0.2-0.7,0.5c0,0.4,0.2,0.6,0.6,0.7c0.2,0.1,0.3,0.1,0.5,0.2c0.4,0.1,0.5,0.4,0.4,0.7c-0.6,1.7-1,3.4-1.5,5.1
		c-0.4,1.3-0.8,2.6-0.8,4c-0.1,0-0.2,0-0.3,0c-1.2,0.7-1.4,0.6-2.2-0.5c-1-1.3-1.6-2.8-2.4-4.2c-0.2-0.3,0-0.5,0.2-0.7
		c1.3-1.3,2.5-2.6,3.6-4c0.4-0.5,0.7-1.1,0.4-1.7c-0.3-0.6-0.9-0.5-1.4-0.5c-0.6-0.1-1.3-0.2-1.8,0.4c-0.9,0.2-0.9,0.2-0.8,1
		c0,0.1,0,0.2,0,0.2c-0.5,0.8-0.9,1.6-1.6,2.2c-0.4-0.4-0.6-0.9-0.9-1.4c-0.6-1.1-2-1.8-3-1.6c-0.5,0.1-0.9,0.2-1.4,0.2
		c-0.4,0-0.7,0.2-0.9,0.6c-0.6,0-1,0.2-1,0.9c-0.3-0.2-0.5-0.3-0.8-0.4c-1.9-0.4-3.7-0.2-5.6,0.1c-1.7,0.3-3.4,0.8-5.2,1
		c-0.3,0-0.5,0.2-0.6,0.4c-0.1,0-0.2,0-0.3,0.1c-0.3,0-0.7,0-0.7,0.4c0,0.4,0.2,0.6,0.5,0.8c0.2,0.1,0.4,0.2,0.6,0.2
		c0.5,0,0.5,0.2,0.5,0.6c-0.2,0.9-0.4,1.8-0.7,2.7c-0.6,1.6-1,3.3-1.3,5c-0.2,1-0.1,1.9,0.4,2.7c1,1.6,3.4,2.3,5.2,1.5
		c2.7-0.9,5-2.4,6.8-4.5c0.2-0.2,0.3-0.4,0.1-0.7c-0.2-0.3-0.4-0.2-0.7-0.1c-1.2,0.7-2.6,1.2-3.9,1.8c-1.1,0.5-2.2,0.9-3.3,1.4
		c-0.5,0.2-0.8,0-0.7-0.5c0.2-1.5,0.5-2.9,1.2-4.3c1.7-0.2,3.4-0.6,5-1.3c0.8-0.4,1.7-0.6,2.3-1.2c0.2-0.2,0.3-0.3,0.2-0.5
		c-0.1-0.2-0.3-0.4-0.5-0.3c-0.9,0.1-1.8,0.2-2.7,0.3c-1.1,0.1-2.1,0.5-3.3,0.5c0.2-0.4,0.3-0.8,0.4-1.2c0.2-0.7,0.6-1.5,0.3-2.3
		c0.6-0.1,1.1-0.3,1.7-0.4c0.1,0,0.2,0,0.3-0.1l0,0l0,0c0.4-0.1,0.8-0.1,1.3-0.2c0.3,0,0.6-0.1,0.8,0.1c0.7,0.6,0.8,0.6,1.5-0.1
		c1,0,1.5-0.6,1.2-1.4c0.3-0.1,0.5,0.2,0.6,0.4c0.9,1.4,1.7,2.9,2.5,4.4c0.2,0.4,0.2,0.6-0.1,0.9c-1.2,1.4-2.4,2.9-3.5,4.5
		c-0.6,0.9-1.2,1.8-1.4,2.8c-0.1,0.5,0,0.9,0.6,1.1c0.5,0.1,0.5-0.3,0.6-0.7c0.6,0.3,0.9,0.2,1-0.5c0-0.3,0.2-0.5,0.3-0.8
		c1-1.8,2.5-3.2,3.9-4.6c1,1.5,2.2,2.9,3.8,3.7c1,0.5,2.2,0.8,3.2,0c0.6-0.3,1.4-0.5,1.8-1.1c0.1,0.5,0.4,0.8,0.7,1.2
		c0.6,0.7,1.3,0.7,1.8,0.1c1,0,1.1-0.1,0.9-1.1c-0.1-0.3,0-0.7,0.1-1c0.3-0.8,0.6-1.6,0.8-2.4C60,99.8,61.1,99.7,62.2,99.3z
		 M102.4,94.1c0.1,0,0.2,0,0.3-0.1c0.3,0,0.7,0,1,0.2c-0.2,0.4-0.3,0.8-0.5,1.2c-0.2,0.5-0.4,0.9,0.1,1.2c0.5,0.3,0.7-0.3,1-0.4
		c0.3,0.1,0.6,0,0.8-0.2c0.8-0.9,1.8-1.5,2.9-1.7c0.2-0.1,0.4-0.2,0.5-0.4c0.2-0.4,0.3-0.7,0-1.1c-0.4-0.5-1-1-1.7-0.9
		c-0.4,0.1-0.5,0-0.7-0.3c-0.6-0.8-1.4-1.2-2.4-1.2c-1.9,0-3.6,0.4-5.3,1.2c-0.2,0.1-0.4,0-0.4,0.3l0,0c-0.1-0.1-0.3,0-0.4,0.1
		c-1.6,0.9-2,3.1-0.9,4.6c0.8,1.1,1.9,2.1,2.8,3.1c1,1.1,1.1,1.4,0.4,2.6c-0.6,0.6-1.5,0.7-2.3,0.9c-1.1,0.1-1.6-0.4-1.5-1.5
		c0-0.7,0.4-1.2,0.5-1.9c0.1-0.5-0.1-0.7-0.6-0.5c-0.3,0.1-0.6,0.3-0.8,0.4c-1.7,0.4-2.8,3.3-1.8,4.7c0.3,0.5,0.8,0.8,1.4,1
		c1.8,0.6,3.6,0.5,5.5,0c0.8-0.1,1.6-0.3,2.4-0.7c0.5-0.3,1.1-0.5,1.6-0.8c1.2-0.7,2.1-2.2,0.7-3.8c-0.2-0.3-0.5-0.6-0.8-0.8
		c-1.2-1.1-2.6-2-3.7-3.2c-0.6-0.6-0.6-0.9,0-1.5c0.4-0.1,0.8-0.1,1.2-0.3C101.9,94.2,102.1,94.1,102.4,94.1z M114.3,107.2
		c0.5,0,0.9-0.2,1.2-0.5c0.1,0,0.2-0.1,0.3-0.1c2.3-0.7,2.7-2.8,1.5-4.5c-0.9-1.3-2.1-2.4-3.2-3.5c-0.6-0.6-0.9-1.6,0.2-2.1
		c1.1-0.2,2.1-0.2,3.3-0.1c-0.3,0.4-0.5,0.7-0.6,1.1c-0.1,0.5-0.1,0.9,0.4,1.2c0.5,0.2,0.7-0.1,1-0.4c0.4,0.1,0.7-0.1,0.9-0.3
		c0.6-0.5,1.2-0.9,2-1.1c0.6-0.1,0.9-0.5,0.9-1.1c0-0.5-0.9-1.3-1.3-1.2c-0.5,0.1-0.8-0.2-1.1-0.4c-1.2-1.3-2.8-1.6-4.5-1.5
		c-1.6,0.2-2.8,0.9-4.2,1.7c-1.3,0.5-1.9,2-1.2,3.3c0.5,1,1.2,1.9,2,2.7c1.4,1.4,1.5,2.2,0.7,3.7l0,0c-0.1,0-0.1,0.1-0.2,0.1
		c-1,0.4-2.1,0.5-3.2,0.3c-1-0.2-1.4-0.8-1.2-1.8c0.1-0.3,0.2-0.5,0.3-0.8c0.1-0.2,0-0.5-0.2-0.6c-0.2-0.2-0.4-0.1-0.6,0
		c-0.2,0.1-0.3,0.3-0.4,0.4c-0.6-0.2-0.9,0.2-1.1,0.7c-0.2,0.3-0.3,0.7-0.4,1.1c-0.4,2,0.3,3.1,2.2,3.8
		C110.1,107.8,112.2,107.8,114.3,107.2z M87.4,104.4c0.6-0.1,1.1-0.3,1.6-0.5c1.2-0.5,2.3-0.9,3.4-1.6c0.2-0.1,0.5-0.2,0.4-0.5
		c-0.1-0.3-0.3-0.5-0.6-0.5c-0.2,0-0.4,0.1-0.6,0.1c-2,0.4-4,0.6-6,0.6c-0.5,0-0.6-0.2-0.4-0.6c0.5-1,1-2,1.5-3c1.6,0,3.1,0,4.7,0
		c0.4,0,0.9,0.1,1.1-0.5c0.4-0.1,1,0.1,1-0.6c0-0.6-0.6-0.7-1-0.8c-1-0.3-1.9-0.4-2.9-0.5c-0.5,0-1,0-1.5,0
		c-0.5-0.1-0.4-0.2-0.2-0.5c0.3-0.5,0.6-1,0.9-1.5c0.3-0.4,0.4-0.8,0.4-1.3c0.8-0.1,1.6-0.2,2.3-0.1c0.7,0.1,1.5,0.1,2.1,0.6
		c0.8,0.7,0.7,0.8,1.4,0c0.6,0.2,0.9-0.2,1.1-0.6c0.2-0.5-0.1-0.9-0.5-1.1c-0.8-0.5-1.7-0.9-2.6-1c-2.2-0.3-4.4-0.1-6.6,0
		c-0.6,0-1.2,0.1-1.8-0.1c-0.5-0.2-0.8,0-0.8,0.6c-0.1,0-0.2,0-0.3-0.1c-0.3-0.1-0.6-0.2-0.8,0.2c-0.1,0.3,0,0.6,0.4,0.8
		c0.4,0.2,0.7,0.4,1.1,0.6c0.2,0.1,0.3,0.2,0.2,0.4c-0.7,1.4-1.3,2.9-1.9,4.3c-0.6,1.3-1.1,2.6-1.3,4c-0.2,1.2,0.4,2.1,1.3,2.9
		c-1,0.1-1.8-0.1-2.4-0.9c-1.2-1.5-2.1-3-2.7-4.8c-0.1-0.4,0.1-0.5,0.4-0.6c1-0.3,1.8-0.9,2.5-1.5c1.1-0.9,1.4-2.6,0.6-3.8
		c-1.2-1.7-3-2.4-5-2.7c-1.7-0.3-3.4-0.2-5,0c-0.5,0.1-1-0.1-1.3,0.5c-0.4-0.1-0.8-0.1-1,0.4c-0.2,0.5,0.2,0.6,0.5,0.8
		c0.1,0,0.1,0.1,0.2,0.1c0.7,0.2,0.7,0.6,0.4,1.2c-0.9,2.3-1.8,4.5-2.3,7c-0.2,1.2-0.4,2.4,0.3,3.5c0.3,0.5,0.8,0.8,1.3,0.9
		c0.4,0.1,0.3-0.4,0.5-0.6c0.4,0,0.8,0.5,1-0.3c0.2-1.6,1-3,1.7-4.5c0.1,0.2,0.2,0.3,0.2,0.5c1.3,2.4,2.9,4.5,5.2,6
		c1.2,0.8,2.8,0.9,3.7,0.2c1.1-0.2,1.4-0.5,1.4-1.2c0.3,0.2,0.7,0.4,1,0.5C84.9,104.8,86.2,104.8,87.4,104.4z M68.5,61.8
		c0.6-0.1,1.2-0.1,1.8-0.1c0.7,0,1.3,0,1.8,0.6c0.5,0.7,1,0.6,1.3-0.2c0.7,0.3,1.3,0,1.1-0.6c-0.2-0.6-0.4-1.2-0.8-1.7
		c-0.9-1.1-2.1-1.4-3.4-1.4c-2.3-0.1-4.2,1-6.2,2.1c-0.4-0.1-0.6,0.2-0.8,0.3c-2.3,1.6-4,3.6-5.5,5.9c0.1-0.6-0.1-1.1-0.5-1.5
		c-0.7-0.8-1.6-1.2-2.6-1.4c-1-0.2-2.1,0-3.2-0.2c-0.5-0.1-0.7,0.1-0.8,0.6c-0.1,0-0.3,0-0.4-0.1c-0.3,0-0.6,0-0.7,0.4
		c-0.1,0.3,0.1,0.5,0.3,0.8c0.2,0.2,0.5,0.3,0.7,0.3c0.4,0.1,0.5,0.3,0.5,0.7c0,0.7-0.1,1.3-0.3,2c-0.6,3-1.7,5.8-2.5,8.7
		c-0.6,1.9-1.2,3.9-1.7,5.8c-0.2,0.7-0.1,1.4,0.3,2c0.5,0.8,1.3,1.3,2.2,1.5c0.6,0.2,1.2,0.1,1.6-0.4c0.9-0.1,1.4-0.5,1.7-1.3
		c1-2.9,2.1-5.6,3.4-8.4c0.5-1.2,1.2-2.4,1.8-3.5c1.5-2.9,3.3-5.5,5.7-7.7C64.9,63.5,66.5,62.3,68.5,61.8z M122.8,108.2
		c0-0.9-0.7-1.6-1.6-1.6c-0.9,0-1.7,0.7-1.7,1.7c0,0.9,0.7,1.6,1.6,1.6C122.1,109.8,122.8,109.1,122.8,108.2z"/>
	<path class="st3" d="M100.2,44.3c-0.7-0.1-1.1,0.1-1.6,0.2c-4.3,1.3-8.1,3.4-11.7,5.9c-0.2,0.1-0.4,0.5-0.6,0.3
		c-0.2-0.1-0.1-0.5,0-0.7c0.7-2.5,2-4.7,4-6.4c2.2-1.9,4.8-2.8,7.7-3.1c2.1-0.3,4.1-0.2,6.2,0c0.5,0,0.9,0,1.4,0
		c0.4,0,0.5,0.2,0.4,0.6c-1.6,4.6-3.8,8.8-7.8,11.7c-2.6,1.9-5.6,2.8-8.8,2.2c-0.9-0.2-1.8-0.5-2.4-1.3c-0.3-0.4-0.3-0.6,0.1-1
		c2.9-2.3,5.9-4.2,9.1-6.1C97.5,45.9,98.8,45.1,100.2,44.3z"/>
	<path class="st3" d="M81.7,51.8c-0.1-2.5-0.6-4.8-1-7.2c-0.6-2.8-2-5.2-3.9-7.3c-0.1-0.1-0.2-0.4-0.4-0.2c-0.2,0.1,0,0.3,0.1,0.5
		c1.2,3.1,2.3,6.3,2.9,9.6c0.3,1.7,0.3,3.5,0.5,5.3c-1.4-0.8-2.7-1.7-3.9-2.7c-3.6-3.4-4.8-7.5-4.2-12.3c0.2-1.8,0.6-3.6,1.5-5.3
		c0.3-0.5,0.4-0.7,1-0.4c1.5,0.7,3,1.3,4.4,2.3c3,2.1,5.2,4.9,6,8.6c0.5,2.5,0,4.9-1.4,7.1C82.7,50.3,82.2,51.1,81.7,51.8z"/>
	<path class="st4" d="M84.6,50c-0.1,0.7-0.2,1.4-0.1,2.1c0,0.3-0.1,0.5-0.3,0.6c-1.1,1-2.1,2.1-2.9,3.3c-0.1,0.1-0.2,0.4-0.4,0.2
		c-0.1-0.1,0-0.3,0-0.4c0.3-0.7,0.4-1.4,0.5-2.2c0-0.2,0-0.5,0.3-0.6C83,52.3,83.9,51.3,84.6,50z"/>
	<path class="st4" d="M88.5,43.4c-1.1,1.2-2,2.4-2.7,3.6c0.2-1.2,0.3-2.4,0.3-3.6c0-0.3,0.1-0.4,0.4-0.3
		C87.1,43.2,87.8,43.3,88.5,43.4z"/>
	<path class="st5" d="M112.4,65.1c1-0.5,2-1.1,3.2-1.1c1.7,0,2.9,0.9,3.8,2.2c1.1,1.5,1,3.1,0.3,4.8c-0.7,1.8-1.5,3.5-2.2,5.3
		c-0.5,1.4-1,2.8-1.4,4.2c-0.1,0.2-0.3,0.5-0.2,0.9c0.8-0.7,1.5-1.4,2.3-2.1c1-0.6,2.1-1.1,3.3-1.6c0.3-0.1,0.6-0.2,0.8-0.2
		c0.3,0,0.6-0.1,0.7,0.3c0.1,0.3-0.2,0.5-0.4,0.7c-0.6,0.4-1.2,0.7-1.8,1c-1.5,0.9-2.6,2.2-3.6,3.6c-0.8,1-1.5,2.2-2.3,3.3
		c-0.4,0.6-0.9,1-1.7,1c-1.8-0.2-3.2-1.9-3-3.8c0.1-1.3,0.3-2.7,0.7-3.9c1.4-3.8,2.4-7.8,4.5-11.4c0.4-0.6,0.7-1.3,0.7-2.1
		c0-0.5-0.2-0.6-0.7-0.5c-0.4,0.1-0.9,0.3-1.2,0.5c-1.5,0.6-2.5,1.8-3.6,2.9c-1.3,1.4-2.4,3-3.4,4.6c-1.1,1.8-2.1,3.7-3,5.7
		c-0.7,1.6-1.5,3.2-2.3,4.8c-0.4,0.8-1,1.4-1.9,1.4c-1.5-0.6-2.4-1.7-2.5-3.3c0-0.9,0.2-1.9,0.5-2.8c0.6-1.9,1.3-3.7,2-5.6
		c1.2-3.2,2.5-6.3,3.9-9.4c1.5-3.3,3.2-6.5,4.6-9.8c0.2-0.4,0.5-0.9-0.2-1.2c-0.1,0-0.1-0.2-0.2-0.4c0.3-0.5,0.8-0.6,1.2-0.5
		c1.7,0.4,3.1,1.2,4.1,2.6c0.6,0.8,0.5,1.8,0.2,2.8c-0.8,2.2-2.1,4.1-3.2,6.1c-0.6,1.1-1.2,2.3-1.7,3.5c-0.1,0.3-0.3,0.6-0.4,0.9
		c1.3-1.1,2.6-2.1,3.9-3.1l0,0c0.1,0,0.2-0.1,0.3-0.2c0,0,0,0,0,0C112.3,65.1,112.3,65.1,112.4,65.1z"/>
	<path class="st5" d="M32.4,56c0.4-0.8,0.6-0.8,1.3-0.4c0.3,0.2,0.6,0.1,0.9,0.1c2.1-0.4,4-1.1,6-1.7c2-0.6,3.9-1.2,6-1.6
		c1.2-0.2,2.4-0.6,3.6-0.8c2.2-0.4,4.3-0.8,6.5-0.8c1,0,2.1-0.2,3.1-0.1c1.5,0.1,2.9,0.2,4.3,0.9c0.9,0.4,1.3,1.3,0.8,2.2
		c-0.3,0.5-0.6,0.9-1.1,1.2c-0.2,0.2-0.5,0.3-0.7,0.1c0-0.7-0.5-0.8-1.1-0.8c-0.1,0-0.1,0-0.2,0c-1.9-0.1-3.7,0-5.6,0.3
		c-1.1,0.2-2.2,0.3-3.3,0.7c-0.7,0.1-1.3,0.2-1.9,0.5c-1.1,0-2.1,0.5-3.1,0.9c0,0,0,0,0,0c-0.8,0-1.5,0.3-2.1,0.7
		c-0.2,0.1-0.4,0.1-0.6,0.2c-1.1,0.4-1,0.4-1.1,1.6c-0.1,1-0.5,2-0.9,3c-0.9,2.1-2,4.1-3.1,6.1c-0.1,0.2-0.2,0.3-0.2,0.6
		c0.9,0,1.6-0.4,2.5-0.6c1.7-0.4,3.3-0.8,5-1c0.8-0.1,1.7-0.1,2.3,0.6c0.2,0.2,0.4,0.4,0.3,0.7c-0.1,0.3-0.4,0.3-0.7,0.3
		c-0.2,0-0.3,0.1-0.5,0.1c0,0,0,0,0,0l0,0c0,0,0,0,0,0c-0.5,0.1-0.9,0.2-1.4,0.4c-0.2,0.1-0.4,0.2-0.7,0.2c-0.7,0-1.4,0.3-2,0.5
		c-1,0.2-2,0.4-2.9,1c-0.9,0.2-1.8,0.6-2.6,0.9c-0.5,0.2-0.7,0.6-0.9,1.1c-1.6,3.7-2.9,7.6-3.5,11.7c-0.1,0.9-0.3,1.8,0.2,2.7
		c0.3,0.5-0.3,0.7-0.7,0.9c-0.2,0.1-0.4,0.1-0.6,0.1c-0.2-0.1-0.5-0.1-0.7-0.1c-1.5-0.1-2.6-0.9-3.1-2.4c-0.5-1.5-0.3-3.1,0.1-4.5
		c0.7-2.5,1.5-4.9,2.3-7.3c0.1-0.4,0.1-0.6-0.4-0.6c-1.2,0-1.8-0.6-1.9-1.6c0.4-0.5,1.1-0.4,1.6-0.7c0.2-0.1,0.5-0.1,0.7-0.3
		c0.5,0,1,0,1.2-0.6c0.3-0.9,0.7-1.7,1-2.6c0.6-1.6,1.3-3.2,2-4.9c0.6-1.4,1.3-2.8,1.9-4.2C35.3,59.7,32.9,58.3,32.4,56z"/>
	<path class="st6" d="M70.5,65.2c1.4-0.9,2.9-1.5,4.5-1.8c0.6-0.1,1.1,0.2,1.5,0.5c1.3,1,2.6,2.2,3.8,3.4c0.8,0.9,0.6,1.9,0.2,2.9
		c-0.5,1.4-1.6,2.3-2.8,3.2c-1.9,1.6-4.2,2.7-6.5,3.4c-0.2,0.1-0.5,0.2-0.7,0.3c-0.6,0-1.1,0.2-1.7,0.3c-0.2,0-0.3,0.1-0.3,0.4
		c-0.4,1.5-0.7,3.1-0.3,4.7c0.2,1,0.6,1.2,1.7,1.1c0.7-0.1,1.4-0.4,2-0.8c0.1,0,0.3,0,0.4-0.1l0,0c0.5-0.1,1-0.5,1.4-0.8
		c1.7-1.1,3.2-2.5,4.5-4c0.9-0.9,1.7-1.9,2.3-3.1c0.1-0.1,0.2-0.2,0.2-0.2c0.3-0.3,0.7-0.5,1-0.2c0.3,0.2,0.3,0.6,0.1,1
		c-1.1,2.6-2.6,4.9-4.6,7c-1.4,1.4-3.2,2.4-5,3.1c-0.2,0.1-0.5-0.1-0.7,0.2c-1.3,0-2.6,0.1-3.8-0.3c-1.7-0.6-3.1-1.5-3.7-3.3
		c-0.4-1.3-0.5-2.6-0.4-3.9c0-0.4-0.1-0.5-0.4-0.6c-0.5-0.2-1-0.3-1.5-0.7c-0.6-0.4-0.6-1-0.9-1.6c0-0.3,0-0.7,0.4-0.8
		c0.4-0.1,0.6,0.2,0.8,0.4c0.3,0.3,0.6,0.5,1,0.7c0.2,0.2,0.4,0.3,0.6,0.4c0.3,0.1,0.4,0,0.4-0.2c0.1-1,0.6-1.9,1-2.8
		c0.9-2.1,2.1-4.1,3.7-5.8C69.4,66.2,70.1,65.8,70.5,65.2z M73.3,73.4c0.9-0.5,1.5-1.2,2.2-1.9c1-1,1.9-2,2.2-3.5
		c0.1-0.5,0.2-1-0.2-1.3c-0.4-0.4-0.8,0-1.2,0.2c-0.1,0-0.2,0.1-0.3,0.2c-3.1,2.1-5.3,4.9-6.7,8.5c0.8-0.3,1.4-0.6,2-1
		C72.1,74.5,72.8,74,73.3,73.4z"/>
	<path class="st5" d="M50.8,64c0.1-0.4,0.3-0.7,0.8-0.6c1,0.2,2.1,0,3.2,0.2c1,0.2,1.9,0.6,2.6,1.4c0.4,0.5,0.6,0.9,0.5,1.5
		c-0.1,0.6-0.3,1.3-0.4,1.9c0.4-0.3,0.6-0.7,0.9-1.1c1-1.7,2.1-3.4,3.4-4.8c0.8-0.8,1.7-1.4,2.5-2.3c1.9-1.1,3.8-2.1,6.2-2.1
		c1.3,0,2.5,0.4,3.4,1.4c0.4,0.5,0.6,1.1,0.8,1.7c0.2,0.6-0.4,0.9-1.1,0.6c-0.1-0.4-0.3-0.7-0.7-0.8c-1.5-0.2-2.9-0.2-4.2,0.6
		c-2,0.5-3.6,1.7-5.1,3.1c-2.5,2.2-4.3,4.8-5.7,7.7c-0.6,1.2-1.3,2.3-1.8,3.5c-1.2,2.7-2.4,5.5-3.4,8.4c-0.3,0.8-0.8,1.3-1.7,1.3
		c-0.9-0.2-1.7-0.6-2.3-1.3c-0.5-0.6-0.8-1.2-0.6-2c0.4-1.6,0.8-3.2,1.3-4.8c0.9-2.6,1.7-5.3,2.5-7.9c0.4-1.4,0.8-2.7,0.8-4.2
		c0-0.5-0.1-0.7-0.6-0.8C51.3,64.7,51,64.5,50.8,64z"/>
	<path class="st5" d="M92.7,67.2c-0.8,0.4-1.5,0.8-1.9,1.5c-0.8,1.2-0.6,2.5,0.2,3.7c1.2,1.9,2.6,3.8,3.9,5.7
		c1.1,1.7,0.6,4.1-1.2,5.2c-0.9,0.6-2,1-3.1,1.4c-0.5,0.2-0.9,0.3-1.4,0.5c-0.4,0-0.7,0-1.1,0c-2,0.2-3.9,0.6-5.8-0.4
		c-1.3-0.6-2.4-1.4-2.3-3.1c0-0.2,0-0.3,0.1-0.5c0.1-0.2,0.2-0.4,0.4-0.5c0.3-0.1,0.4,0.1,0.6,0.3c1,1.6,2.5,1.8,4.2,1.5
		c0.5-0.1,1.1-0.1,1.6-0.4c0.3,0,0.6-0.1,0.8-0.4c0,0,0,0,0,0c0.1,0,0.2,0,0.1-0.1c0,0,0,0,0,0c0.2,0,0.4-0.1,0.6-0.3
		c0.1-0.1,0.3-0.1,0.4-0.2c1.9-1.5,2.5-2.8,1.2-4.7c-1-1.5-2-2.9-3.1-4.3C84.9,70,85,67.1,87,64.9c0.1-0.1,0.3-0.2,0.3-0.4
		c1.8-1.2,3.8-1.7,6-1.7c1.7,0,3.1,0.5,4.4,1.6c0.3,0.2,0.5,0.3,0.8,0.1c0.1-0.1,0.2-0.1,0.4-0.2c0.4-0.2,0.8-0.6,1.1-0.2
		c0.5,0.5,1,0.9,0.9,1.7c-0.1,0.5-0.3,0.9-0.8,1c-1.4,0.4-2.6,1-3.2,2.4c-0.2,0.4-0.6,0.2-1,0.1c-0.7-1-0.3-2,0.3-3
		c-0.8,0.1-1.4,0.3-2.1,0.4C93.6,66.7,93.1,66.9,92.7,67.2z"/>
	<path class="st6" d="M69.5,90.1c0.2-0.6,0.8-0.5,1.3-0.5c1.7-0.2,3.4-0.3,5,0c1.9,0.4,3.8,1,5,2.7c0.8,1.2,0.5,2.9-0.6,3.8
		c-0.8,0.6-1.6,1.2-2.5,1.5c-0.3,0.1-0.5,0.2-0.4,0.6c0.6,1.8,1.5,3.4,2.7,4.8c0.7,0.8,1.5,1,2.4,0.9c0.1,0,0.1,0.1,0.2,0.1
		c0,0.7-0.3,1-1.4,1.2c-1-0.1-1.9-0.2-2.8-0.9c-2.2-1.6-3.8-3.6-5-6c-0.2-0.4-0.3-1-0.7-1c-0.3,0-0.5,0.7-0.6,1.1
		c-0.7,1.4-1.4,2.9-1.7,4.5c-0.1,0.8-0.6,0.3-1,0.3c0,0,0,0,0,0c0-0.1,0-0.1-0.1-0.1c-0.8-0.5-1.1-1.3-1.1-2.2c0-1.6,0.4-3,0.9-4.5
		c0.5-1.6,1.1-3.1,1.7-4.7c0.1-0.4,0.1-0.6-0.3-0.8C70.1,90.9,69.6,90.7,69.5,90.1z M77.3,94.5c0.5,0,0.8-0.3,1.1-0.6
		c0.6-0.6,0.5-1.4-0.3-1.8c-1.3-0.6-2.7-0.7-4.2-0.7c0.2,0.2,0.3,0.4,0.4,0.5c0.1,1.5-0.7,2.7-1.2,4.1
		C74.7,95.8,76.1,95.6,77.3,94.5z"/>
	<path class="st6" d="M28.6,94c0.1-0.3,0.3-0.4,0.6-0.4c1.7-0.2,3.4-0.8,5.2-1c1.8-0.3,3.7-0.5,5.6-0.1c0.3,0.1,0.6,0.2,0.8,0.4
		c0,0,0,0,0,0c0,0.1,0,0.1,0.1,0.1l0,0c0.3,0.8-0.2,1.3-1.2,1.4c-0.4-0.7-1-0.6-1.6-0.5c-0.8,0.1-1.6,0.2-2.4,0.5
		c-0.6,0.1-1.1,0.1-1.6,0.2c-0.4,0.1-0.2,0.2,0,0.3c0.3,0.8-0.1,1.5-0.3,2.3c-0.1,0.4-0.3,0.8-0.4,1.2c1.2,0,2.2-0.3,3.3-0.5
		c0.9-0.1,1.8-0.2,2.7-0.3c0.3,0,0.4,0.1,0.5,0.3c0.1,0.2-0.1,0.4-0.2,0.5c-0.7,0.6-1.5,0.9-2.3,1.2c-1.6,0.3-3.1,0.8-4.7,0.9
		c-0.3,0-0.3,0.2-0.4,0.4c-0.7,1.4-1,2.8-1.2,4.3c-0.1,0.5,0.2,0.7,0.7,0.5c1.1-0.4,2.2-0.9,3.3-1.4c1.3-0.6,2.7-1,3.9-1.8
		c0.2-0.1,0.5-0.2,0.7,0.1c0.2,0.3,0.1,0.5-0.1,0.7c-1.9,2.1-4.2,3.6-6.8,4.5c-0.6,0-1.1-0.1-1.7-0.3c-2.2-0.8-3.2-2.3-2.9-4.3
		c0.2-1.4,0.6-2.8,1-4.2c0.4-1.2,0.8-2.3,1-3.6c0.1-0.4,0.1-0.7-0.5-0.6C29.2,94.9,28.8,94.6,28.6,94z"/>
	<path class="st6" d="M98.4,91.6c1.7-0.8,3.4-1.3,5.3-1.2c1.1,0,1.8,0.4,2.4,1.2c0.2,0.2,0.3,0.3,0.7,0.3c0.7-0.1,1.2,0.3,1.7,0.9
		c0.3,0.3,0.2,0.7,0,1.1c-0.1,0.2-0.3,0.4-0.5,0.4c-1.2,0.3-2.2,0.8-2.9,1.7c-0.2,0.2-0.5,0.4-0.8,0.2c-0.3-0.4-0.3-0.8-0.1-1.2
		c0.2-0.4,0.4-0.9,0.6-1.3c-1.1-0.2-2.1,0-3.1,0.3c-0.4,0.1-0.9,0.1-1.2,0.5c-0.6,0.6-0.6,0.9,0,1.5c1.2,1.2,2.6,2.1,3.7,3.2
		c0.3,0.3,0.6,0.5,0.8,0.8c1.4,1.6,0.5,3-0.7,3.8c-0.5,0.3-1.1,0.5-1.6,0.8c-1,0.2-1.9,0.4-2.9,0.6c-1.3,0-2.7,0.1-4-0.4
		c-1-0.4-2-1.5-1.5-2.9c0.3-0.8,0.5-1.6,1-2.3c0.3-0.1,0.5-0.3,0.8-0.4c0.5-0.2,0.7,0.1,0.6,0.5c-0.2,0.6-0.5,1.2-0.5,1.9
		c-0.1,1.1,0.4,1.6,1.5,1.5c0.8-0.1,1.7-0.2,2.3-0.9c0.8-0.1,1.2-0.6,1.5-1.2c0.2-0.5,0-1-0.3-1.4c-0.7-0.7-1.4-1.5-2.1-2.2
		c-0.5-0.5-0.9-1.1-1.3-1.7c-0.9-1.4-0.3-2.6,0.4-3.8l0,0C98.2,91.9,98.3,91.7,98.4,91.6z"/>
	<path class="st6" d="M54.5,103c-0.4,0.7-1.2,0.8-1.8,1.1c-0.5-0.1-1-0.1-1.5-0.3c-1.9-0.5-3-2-4.2-3.5c-0.6-0.8-0.6-0.8-1.3-0.1
		c0,0,0,0.1-0.1,0.1c-1.5,1.4-2.9,2.9-3.9,4.6c-0.1,0.2-0.3,0.5-0.3,0.8c-0.1,0.7-0.4,0.8-1,0.5c-0.3-0.6-0.2-1.3,0.1-1.9
		c0.3-0.7,0.7-1.4,1.2-2c1-1.5,2.2-2.9,3.4-4.4c0.2-0.2,0.4-0.4,0.2-0.7c-0.6-0.9-1.1-1.9-1.6-2.9c-0.5-0.9-1.1-1.8-1.8-2.6
		c0.2-0.4,0.5-0.5,0.9-0.6c0.5,0,0.9-0.1,1.4-0.2c1-0.2,2.4,0.6,3,1.6c0.3,0.5,0.5,1,0.9,1.4c0,0.2,0,0.6,0.3,0.2
		c0.8-0.8,1.6-1.6,2.1-2.6c0.2-0.4,0.3-0.7,0-1.1c0.4-0.7,1.1-0.5,1.8-0.4c0.5,0.1,1.1,0,1.4,0.5c0.3,0.6,0,1.2-0.4,1.7
		c-1.1,1.4-2.3,2.7-3.6,4c-0.2,0.2-0.4,0.4-0.2,0.7c0.8,1.4,1.5,2.9,2.4,4.2c0.8,1.1,1,1.1,2.2,0.5c0.1,0,0.2,0,0.3,0
		C54.7,102.1,54.8,102.5,54.5,103z"/>
	<path class="st6" d="M111.1,94.3c1.3-0.7,2.6-1.5,4.2-1.7c1.7-0.2,3.3,0.2,4.5,1.5c0.3,0.3,0.6,0.6,1.1,0.4
		c0.4-0.1,1.2,0.8,1.3,1.2c0,0.6-0.3,1-0.9,1.1c-0.8,0.2-1.4,0.5-2,1.1c-0.3,0.2-0.5,0.4-0.9,0.3c-0.5-0.7-0.5-1.3,0.2-2.3
		c-1.5-0.2-3-0.2-4.3,0.6c-1.1,0.5-0.8,1.5-0.2,2.1c1.1,1.2,2.3,2.2,3.2,3.5c1.1,1.6,0.7,3.8-1.5,4.5c-0.1,0-0.2,0.1-0.3,0.1
		c-0.7,0.1-1.4,0.3-2.2,0.4c-1.5,0.1-2.9,0-4.3-0.5c-1.7-0.6-2.4-1.5-2.3-2.9c0.1-0.7,0.3-1.4,0.5-2.1c0.1-0.1,0.3-0.3,0.4-0.4
		c0.2-0.1,0.4-0.2,0.6,0c0.2,0.2,0.2,0.4,0.2,0.6c-0.1,0.3-0.2,0.5-0.3,0.8c-0.3,1,0.2,1.7,1.2,1.8c1.1,0.2,2.1,0.1,3.2-0.3
		c0.1,0,0.2,0,0.2-0.1c0,0,0,0,0,0c1.5-0.4,2-1.7,1.2-3c-0.8-1.1-1.7-2.1-2.5-3.2c-0.7-1-1-2.1-0.2-3.2
		C111.2,94.5,111.1,94.4,111.1,94.3z"/>
	<path class="st6" d="M58.8,99.7c-0.3,0.8-0.6,1.6-0.8,2.4c-0.1,0.3-0.1,0.7-0.1,1c0.2,1,0.1,1.1-0.9,1.1c-0.2-0.3-0.6-0.3-0.8-0.7
		c-0.8-1.1-1-2.3-0.7-3.6c0.5-2.5,1.3-5,2.1-7.5c0.3-0.8,0.3-0.9-0.6-1.2c-0.4-0.2-0.9-0.3-0.8-0.9c0.4-0.6,1.1-0.5,1.7-0.6
		c1.9-0.2,3.9-0.4,5.8,0c1.1,0.2,2.2,0.6,3.1,1.2c2.1,1.5,1.8,4.4,0,5.9c-0.9,0.8-1.9,1.4-3.1,1.8c-0.7,0.1-1.5,0.3-2.2,0.4
		c-0.7,0-1.4,0.1-2.1,0C59,99.1,58.8,99.3,58.8,99.7z M61.3,92.5c-0.5,1.5-1.1,3.1-1.6,4.6c-0.2,0.6-0.1,0.7,0.5,0.6
		c0.7-0.2,1.5-0.4,2.1-0.9c1,0,3.1-2.5,3.2-3.6c0-0.4-0.1-0.7-0.6-0.8c-1-0.3-2-0.3-3-0.4C61.3,91.9,61.1,92.1,61.3,92.5z"/>
	<path class="st6" d="M86.6,98.3c-0.5,1-1,2-1.5,3c-0.2,0.4-0.1,0.6,0.4,0.6c2-0.1,4-0.3,6-0.6c0.2,0,0.4-0.1,0.6-0.1
		c0.3,0,0.6,0.2,0.6,0.5c0.1,0.3-0.2,0.4-0.4,0.5c-1.1,0.6-2.3,1.1-3.4,1.6c-0.7,0-1.3,0.3-2,0.4c-0.6,0-1.2,0-1.8,0
		c-2-0.1-3.5-2.3-2.9-4.2c0.7-2.7,2.1-5.1,3.1-7.7c0.1-0.3,0.1-0.4-0.2-0.5c-0.5-0.3-1.1-0.5-1.5-1c0-0.5,0.2-0.8,0.8-0.6
		c0.6,0.2,1.2,0.2,1.8,0.1c2.2-0.1,4.4-0.4,6.6,0c1,0.2,1.8,0.5,2.6,1c0.4,0.2,0.7,0.6,0.5,1.1c-0.2,0.5-0.5,0.8-1.1,0.6
		c-0.2-0.6-0.7-0.8-1.3-1c-1.5-0.4-2.9-0.2-4.3,0.1c-0.2,0-0.4,0.1-0.2,0.3c0.1,0.5-0.1,0.9-0.4,1.3c-0.3,0.5-0.6,1-0.9,1.5
		c-0.2,0.3-0.2,0.4,0.2,0.5c0.5,0.1,1,0,1.5,0c1,0.1,2,0.2,2.9,0.5c0.5,0.1,1,0.2,1,0.8c0,0.7-0.7,0.4-1,0.6c-0.2,0-0.5,0-0.7,0
		c-1.4-0.1-2.9-0.1-4.3,0.1C87.1,97.9,86.7,97.8,86.6,98.3z"/>
	<path class="st7" d="M108,53.1c0.1,0.1,0.1,0.3,0.2,0.4c0.8,0.3,0.4,0.8,0.2,1.2c-1.4,3.4-3.1,6.5-4.6,9.8
		c-1.4,3.1-2.7,6.2-3.9,9.4c-0.7,1.9-1.4,3.7-2,5.6c-0.3,0.9-0.6,1.8-0.5,2.8c0.1,1.6,1,2.8,2.5,3.3c-0.7,0.6-1.1,0.8-2.2,0
		c-1.6-1.1-1.8-2.7-1.3-4.4c0.6-2.4,1.6-4.7,2.4-7.1c1.3-3.7,2.9-7.3,4.6-10.8c0.7-1.6,1.6-3.2,2.3-4.7c0.6-1.3,1.1-2.6,1.7-3.8
		c0.1-0.2,0.2-0.4-0.1-0.5c-0.3-0.1-0.5-0.3-0.4-0.6c0.1-0.4,0.4-0.4,0.7-0.5C107.7,53.1,107.9,53.1,108,53.1z"/>
	<path class="st7" d="M50.8,64c0.2,0.5,0.6,0.8,1,0.9c0.5,0.1,0.6,0.4,0.6,0.8c0,1.4-0.4,2.8-0.8,4.2c-0.7,2.7-1.6,5.3-2.5,7.9
		c-0.5,1.6-0.9,3.2-1.3,4.8c-0.2,0.8,0.2,1.4,0.6,2c0.6,0.7,1.4,1.1,2.3,1.3c-0.4,0.5-1,0.6-1.6,0.4c-0.9-0.3-1.6-0.8-2.2-1.5
		c-0.4-0.6-0.5-1.3-0.3-2c0.5-2,1.1-3.9,1.7-5.8c0.9-2.9,1.9-5.8,2.5-8.7c0.1-0.7,0.3-1.3,0.3-2c0-0.4-0.1-0.6-0.5-0.7
		c-0.3-0.1-0.5-0.1-0.7-0.3c-0.2-0.2-0.4-0.4-0.3-0.8c0.1-0.3,0.4-0.4,0.7-0.4C50.5,64,50.6,64,50.8,64z"/>
	<path class="st7" d="M114.2,66.2c0.4-0.3,0.8-0.4,1.2-0.5c0.4-0.1,0.7,0,0.7,0.5c0,0.8-0.4,1.5-0.7,2.1c-2.1,3.6-3.1,7.6-4.5,11.4
		c-0.4,1.2-0.6,2.6-0.7,3.9c-0.2,1.9,1.2,3.5,3,3.8c-0.5,0.7-1.7,0.6-2.6,0c-1.7-1.1-1.8-2.7-1.5-4.4c0.3-2.1,1-4.2,1.8-6.2
		c0.5-1.2,0.9-2.4,1.2-3.6c0.6-1.9,1.7-3.5,2.5-5.3c0.1-0.3,0.3-0.7,0.3-1C114.9,66.3,114.7,66.1,114.2,66.2z"/>
	<path class="st7" d="M30.2,71.8c0.1,1,0.7,1.6,1.9,1.6c0.5,0,0.5,0.1,0.4,0.6c-0.8,2.4-1.7,4.8-2.3,7.3c-0.4,1.5-0.5,3-0.1,4.5
		c0.4,1.5,1.5,2.3,3.1,2.4c0.2,0,0.5,0,0.7,0.1c-0.2,0.3-0.4,0.5-0.8,0.5c-0.8-0.1-1.7,0-2.5-0.4c-1.2-0.6-1.8-1.6-1.9-2.9
		c-0.2-2.3,0.3-4.4,1.2-6.5c0.6-1.5,1-3.1,1.5-4.7c0.1-0.4-0.2-0.3-0.4-0.3c-0.5,0-1.1-0.1-1.5-0.5c-0.7-0.7-0.5-1.3,0.4-1.5
		C30,71.9,30.1,71.8,30.2,71.8z"/>
	<path class="st7" d="M87.3,64.5c0,0.2-0.2,0.3-0.3,0.4c-2,2.2-2.1,5.1-0.3,7.5c1.1,1.4,2.1,2.8,3.1,4.3c1.3,1.9,0.7,3.2-1.2,4.7
		c-0.1,0.1-0.3,0.1-0.4,0.2c-0.1,0-0.2,0-0.2,0c0.3-0.4,0.6-0.7,0.9-1.1c0.8-1.1,0.4-2.2-0.2-3.2c-1-1.5-2.1-3-3.3-4.5
		c-2-2.5-1.3-6.4,1.3-8.1C86.9,64.6,87.1,64.4,87.3,64.5z"/>
	<path class="st7" d="M60.9,74.9c0.2,0.5,0.3,1.2,0.9,1.6c0.5,0.3,1,0.5,1.5,0.7c0.4,0.1,0.5,0.2,0.4,0.6c-0.1,1.3,0,2.6,0.4,3.9
		c0.6,1.9,2.1,2.7,3.7,3.3c1.2,0.5,2.5,0.3,3.8,0.3c-1.4,0.7-2.9,0.7-4.4,0.4c-0.6-0.1-1.1-0.4-1.7-0.6c-2.1-1.1-3-2.8-3-5.1
		c0-0.6,0-1.2,0-1.8c0-0.3-0.1-0.4-0.3-0.5c-0.4-0.1-0.8-0.3-1.2-0.4c-0.7-0.3-1.3-1.4-1.2-2.1C59.8,74.5,60.2,74.5,60.9,74.9z"/>
	<path class="st7" d="M32.4,56c0.6,2.3,2.9,3.7,6.3,2.7c-0.7,1.4-1.3,2.8-1.9,4.2c-0.7,1.6-1.4,3.2-2,4.9c-0.3,0.9-0.7,1.7-1,2.6
		c-0.2,0.5-0.7,0.5-1.2,0.6c1.4-3.9,3.1-7.7,4.9-11.6c-0.8,0.1-1.4,0.3-2.1,0.3c-1.2-0.1-2.4-0.4-3.2-1.3c-0.3-0.4-0.6-0.8-0.8-1.3
		c-0.1-0.3-0.2-0.6,0.1-0.9C31.7,55.8,32,55.9,32.4,56z"/>
	<path class="st7" d="M28.6,94c0.2,0.6,0.6,0.9,1.3,0.9c0.5,0,0.5,0.3,0.5,0.6c-0.2,1.2-0.6,2.4-1,3.6c-0.5,1.4-0.8,2.8-1,4.2
		c-0.3,2.1,0.6,3.5,2.9,4.3c0.5,0.2,1.1,0.3,1.7,0.3c-1.8,0.8-4.2,0.1-5.2-1.5c-0.5-0.8-0.6-1.8-0.4-2.7c0.3-1.7,0.7-3.3,1.3-5
		c0.3-0.9,0.6-1.8,0.7-2.7c0.1-0.4,0-0.6-0.5-0.6c-0.2,0-0.5-0.1-0.6-0.2c-0.3-0.2-0.6-0.4-0.5-0.8c0-0.5,0.4-0.4,0.7-0.4
		C28.4,94,28.5,94,28.6,94z"/>
	<path class="st7" d="M83.7,90.8c0.4,0.5,0.9,0.7,1.5,1c0.3,0.1,0.3,0.3,0.2,0.5c-1.1,2.5-2.4,5-3.1,7.7c-0.5,1.9,1,4.1,2.9,4.2
		c0.6,0,1.2,0,1.8,0c0.1,0.1,0.3,0,0.4,0.1c-1.3,0.5-2.6,0.4-3.9,0.3c-0.4,0-0.7-0.3-1-0.5c-0.1,0-0.1-0.1-0.2-0.1
		c-0.9-0.8-1.4-1.7-1.3-2.9c0.2-1.4,0.7-2.7,1.3-4c0.7-1.4,1.3-2.9,1.9-4.3c0.1-0.2,0-0.3-0.2-0.4c-0.4-0.2-0.7-0.5-1.1-0.6
		c-0.3-0.2-0.5-0.4-0.4-0.8c0.1-0.4,0.5-0.3,0.8-0.2C83.5,90.7,83.6,90.8,83.7,90.8z"/>
	<path class="st7" d="M56.2,90.4c-0.1,0.6,0.4,0.7,0.8,0.9c0.9,0.3,0.9,0.3,0.6,1.2c-0.8,2.5-1.6,4.9-2.1,7.5
		c-0.3,1.3-0.1,2.5,0.7,3.6c0.2,0.3,0.6,0.4,0.8,0.7c-0.5,0.7-1.2,0.7-1.8-0.1c-0.3-0.4-0.6-0.7-0.7-1.2c0.3-0.5,0.2-0.9-0.2-1.2
		c0-1.4,0.4-2.7,0.8-4c0.5-1.7,0.9-3.4,1.5-5.1c0.1-0.3,0-0.6-0.4-0.7c-0.2,0-0.3-0.1-0.5-0.2c-0.4-0.1-0.6-0.3-0.6-0.7
		c0-0.4,0.3-0.5,0.7-0.5C55.9,90.5,56,90.5,56.2,90.4z"/>
	<path class="st7" d="M69.5,90.1c0.1,0.6,0.6,0.8,1,1c0.4,0.2,0.4,0.4,0.3,0.8c-0.6,1.6-1.2,3.1-1.7,4.7c-0.5,1.5-0.9,2.9-0.9,4.5
		c0,0.9,0.3,1.7,1.1,2.2c0,0.1,0,0.2,0.1,0.1c0,0,0,0,0,0c-0.1,0.2-0.1,0.7-0.5,0.6c-0.5-0.1-1-0.4-1.3-0.9
		c-0.7-1.1-0.6-2.3-0.3-3.5c0.5-2.4,1.4-4.7,2.3-7c0.2-0.6,0.3-1-0.4-1.2c-0.1,0-0.1-0.1-0.2-0.1c-0.3-0.2-0.7-0.4-0.5-0.8
		C68.7,90,69.1,90,69.5,90.1z"/>
	<path class="st8" d="M41.7,91.9c0.7,0.8,1.3,1.7,1.8,2.6c0.5,1,1.1,1.9,1.6,2.9c0.2,0.3,0,0.5-0.2,0.7c-1.2,1.4-2.3,2.9-3.4,4.4
		c-0.4,0.7-0.8,1.3-1.2,2c-0.3,0.6-0.4,1.2-0.1,1.9c-0.1,0.3-0.1,0.8-0.6,0.7c-0.6-0.1-0.7-0.6-0.6-1.1c0.2-1.1,0.8-2,1.4-2.8
		c1.1-1.6,2.2-3,3.5-4.5c0.3-0.3,0.3-0.6,0.1-0.9c-0.8-1.5-1.7-2.9-2.5-4.4c-0.1-0.2-0.3-0.5-0.6-0.4c0,0,0,0,0,0
		c0-0.1,0-0.1-0.1-0.1c0,0,0,0,0,0C40.7,92.1,41.1,91.9,41.7,91.9z"/>
	<path class="st7" d="M72,98.6c0.1-0.4,0.3-1.1,0.6-1.1c0.4,0,0.5,0.6,0.7,1c1.3,2.4,2.8,4.4,5,6c0.9,0.6,1.8,0.8,2.8,0.9
		c-0.8,0.7-2.4,0.6-3.7-0.2c-2.3-1.5-3.9-3.6-5.2-6C72.2,99,72.1,98.8,72,98.6z"/>
	<path class="st7" d="M98,91.9c-0.8,1.2-1.3,2.4-0.4,3.8c0.4,0.6,0.8,1.2,1.3,1.7c0.7,0.7,1.4,1.4,2.1,2.2c0.4,0.4,0.5,0.9,0.3,1.4
		c-0.3,0.7-0.7,1.1-1.5,1.2c0.7-1.2,0.6-1.5-0.4-2.6c-0.9-1-2-2-2.8-3.1c-1.1-1.4-0.7-3.7,0.9-4.6C97.8,91.9,97.9,91.8,98,91.9z"/>
	<path class="st7" d="M111.1,94.3c0,0.1,0,0.2,0,0.3c-0.8,1.1-0.5,2.2,0.2,3.2c0.8,1.1,1.7,2.1,2.5,3.2c0.8,1.2,0.3,2.5-1.2,3
		c0.8-1.5,0.6-2.3-0.7-3.7c-0.8-0.8-1.5-1.7-2-2.7C109.2,96.3,109.8,94.8,111.1,94.3z"/>
	<path class="st7" d="M80,81.8c-0.1,1.7,1,2.5,2.3,3.1c1.9,0.9,3.9,0.6,5.8,0.4c0.4,0,0.7-0.1,1.1,0c-2.2,0.8-4.4,1-6.6,0.7
		c-1.4-0.2-2.8-0.8-3.6-2.2c-0.4-0.7-0.2-1.4-0.1-2C79,81.3,79.5,81.3,80,81.8z"/>
	<path class="st8" d="M107.2,101.6c-0.2,0.7-0.4,1.4-0.5,2.1c-0.1,1.5,0.7,2.4,2.3,2.9c1.4,0.5,2.9,0.6,4.3,0.5
		c0.3,0.1,0.6-0.1,0.9,0.1c-2.1,0.6-4.2,0.6-6.3-0.1c-1.9-0.6-2.6-1.8-2.2-3.8c0.1-0.4,0.2-0.7,0.4-1.1
		C106.3,101.8,106.6,101.4,107.2,101.6z"/>
	<path class="st8" d="M70.5,65.2c-0.4,0.7-1.1,1-1.6,1.5c-1.6,1.7-2.8,3.7-3.7,5.8c-0.4,0.9-0.9,1.8-1,2.8c0,0.3-0.2,0.3-0.4,0.2
		c-0.2-0.1-0.5-0.2-0.6-0.4c0.8-2.4,1.9-4.5,3.4-6.6c0.9-1.3,2.1-2.2,3.3-3.2C70,65.3,70.2,65.1,70.5,65.2z"/>
	<path class="st8" d="M95.2,99.6c-0.5,0.7-0.7,1.5-1,2.3c-0.5,1.4,0.5,2.5,1.5,2.9c1.3,0.5,2.6,0.4,4,0.4c0.2,0.1,0.4-0.1,0.6,0.1
		c-1.8,0.5-3.6,0.6-5.5,0c-0.6-0.2-1.1-0.5-1.4-1C92.4,102.9,93.6,100,95.2,99.6z"/>
	<path class="st7" d="M45.6,100.4c0,0,0-0.1,0.1-0.1c0.7-0.8,0.6-0.7,1.3,0.1c1.2,1.4,2.3,2.9,4.2,3.5c0.5,0.1,1,0.2,1.5,0.3
		c-1.1,0.9-2.2,0.5-3.2,0C47.8,103.4,46.7,101.9,45.6,100.4z"/>
	<path class="st9" d="M53,55.1c1.1-0.4,2.2-0.5,3.3-0.7c1.8-0.3,3.7-0.4,5.6-0.3c0.1,0,0.1,0,0.2,0c0.6,0,1.1,0.1,1.1,0.8
		c-0.2,0.1-0.3,0.3-0.5,0.4c-0.4,0.3-0.7,0.2-0.8-0.2c-0.1-0.3-0.3-0.4-0.6-0.4c-1.1-0.2-2.2-0.1-3.3-0.1c-1.5,0.1-3,0.3-4.5,0.5
		C53.3,55.2,53.1,55.3,53,55.1z"/>
	<path class="st9" d="M64.2,60.3c-0.8,0.8-1.7,1.4-2.5,2.3c-1.4,1.5-2.4,3.1-3.4,4.8c-0.2,0.4-0.5,0.8-0.9,1.1
		c0.1-0.6,0.3-1.3,0.4-1.9c1.5-2.3,3.2-4.4,5.5-5.9C63.6,60.5,63.9,60.2,64.2,60.3z"/>
	<path class="st9" d="M80.4,74.7c-0.5,1.2-1.4,2.1-2.3,3.1c-1.4,1.5-2.8,2.9-4.5,4c-0.1,0-0.2,0-0.2,0c0.8-0.9,1.8-1.5,2.6-2.4
		c1.1-1.2,2.3-2.5,3.2-3.9C79.5,74.9,79.8,74.5,80.4,74.7z"/>
	<path class="st8" d="M94.1,66.6c0.7-0.2,1.3-0.4,2.1-0.4c-0.6,1-1,2-0.3,3c-0.2,0.3-0.2,0.8-0.8,0.7c-0.5-0.1-0.7-0.4-0.8-0.9
		c-0.1-0.6,0-1.2,0.4-1.7c0.3-0.5,0-0.5-0.3-0.4C94.2,66.8,94.1,66.8,94.1,66.6z"/>
	<path class="st9" d="M114.4,96.5c1.4-0.8,2.8-0.8,4.3-0.6c-0.7,1.1-0.8,1.7-0.2,2.3c-0.3,0.3-0.5,0.7-1,0.4
		c-0.5-0.3-0.4-0.7-0.4-1.2c0.1-0.4,0.3-0.7,0.6-1.1C116.5,96.3,115.4,96.3,114.4,96.5z"/>
	<path class="st9" d="M89.1,92.5c-0.2-0.2,0-0.3,0.2-0.3c1.4-0.2,2.9-0.5,4.3-0.1c0.6,0.2,1.1,0.4,1.3,1c-0.7,0.7-0.6,0.7-1.4,0
		c-0.6-0.5-1.4-0.5-2.1-0.6C90.6,92.3,89.8,92.5,89.1,92.5z"/>
	<path class="st8" d="M101.7,93.9c1-0.2,2-0.4,3.1-0.3c-0.2,0.5-0.4,0.9-0.6,1.3c-0.2,0.4-0.2,0.8,0.1,1.2c-0.3,0.2-0.5,0.8-1,0.4
		c-0.5-0.3-0.3-0.8-0.1-1.2c0.2-0.4,0.3-0.8,0.5-1.2c-0.3-0.2-0.7-0.1-1-0.2c-0.1,0-0.2,0-0.3,0.1c-0.2,0-0.5,0-0.7,0.1
		C101.7,94.1,101.7,94,101.7,93.9z"/>
	<path class="st8" d="M68.5,61.8c1.3-0.7,2.8-0.8,4.2-0.6c0.4,0.1,0.6,0.4,0.7,0.8c-0.4,0.8-0.8,0.9-1.3,0.2
		c-0.5-0.7-1.1-0.6-1.8-0.6C69.7,61.6,69.1,61.7,68.5,61.8z"/>
	<path class="st10" d="M122.8,108.2c0,0.9-0.7,1.6-1.6,1.6c-0.9,0-1.6-0.7-1.6-1.6c0-0.9,0.8-1.7,1.7-1.7
		C122.2,106.6,122.8,107.3,122.8,108.2z M122,109.1c0.6-0.6,0.6-1.3,0.1-1.8c-0.5-0.5-1.2-0.5-1.7,0c-0.5,0.5-0.5,1.3-0.1,1.8
		C120.8,109.6,121.4,109.6,122,109.1L122,109.1z"/>
	<path class="st11" d="M86.6,98.3c0.1-0.4,0.4-0.4,0.7-0.4c1.4-0.2,2.9-0.1,4.3-0.1c0.2,0,0.5,0,0.7,0c-0.2,0.5-0.7,0.5-1.1,0.5
		C89.8,98.3,88.2,98.3,86.6,98.3z"/>
	<path class="st9" d="M50.4,90.7c0.3,0.4,0.2,0.7,0,1.1c-0.5,1-1.4,1.8-2.1,2.6c-0.3,0.4-0.3,0-0.3-0.2c0.8-0.6,1.2-1.4,1.6-2.2
		c0-0.1,0.1-0.2,0-0.2C49.5,90.9,49.5,90.9,50.4,90.7z"/>
	<path class="st9" d="M35.7,94.3c0.8-0.3,1.6-0.4,2.4-0.5c0.6-0.1,1.2-0.2,1.6,0.5C39.1,95,39,95,38.2,94.4
		c-0.3-0.2-0.6-0.1-0.8-0.1c-0.4,0-0.8,0.1-1.3,0.2c0,0-0.1,0-0.1,0c-0.1,0-0.2,0-0.3,0.1C35.7,94.5,35.7,94.4,35.7,94.3z"/>
	<path class="st11" d="M112,65.3c-1.3,1-2.6,2-3.9,3.1c0.1-0.3,0.3-0.6,0.4-0.9c0.9-0.6,1.8-1.3,2.7-1.9
		C111.4,65.4,111.6,65.2,112,65.3z"/>
	<path class="st12" d="M32.3,100.9c0.1-0.2,0.1-0.4,0.4-0.4c1.6-0.1,3.1-0.6,4.7-0.9C35.8,100.4,34.1,100.7,32.3,100.9z"/>
	<path class="st9" d="M58.8,99.7c-0.1-0.4,0.1-0.6,0.6-0.6c0.7,0.1,1.4,0,2.1,0c0.2,0.1,0.5-0.1,0.7,0.1
		C61.1,99.7,60,99.8,58.8,99.7z"/>
	<path class="st12" d="M42,71c0.9-0.5,1.9-0.8,2.9-1c0.7-0.1,1.3-0.4,2-0.5C46,70.2,45,70.3,44,70.5C43.3,70.7,42.7,71,42,71z"/>
	<path class="st11" d="M118.1,79.3c-0.7,0.7-1.5,1.3-2.3,2.1c0-0.4,0.1-0.6,0.2-0.9C116.8,80.2,117.3,79.4,118.1,79.3z"/>
	<path class="st13" d="M47.9,56.6c1-0.5,2-0.9,3.1-0.9c0,0,0,0.1,0,0.1C50.1,56.2,49,56.4,47.9,56.6z"/>
	<path class="st13" d="M100.3,105.3c-0.2-0.2-0.4,0-0.6-0.1c1-0.2,1.9-0.4,2.9-0.6C101.9,105,101.1,105.2,100.3,105.3z"/>
	<path class="st12" d="M51.1,55.8c0,0,0-0.1,0-0.1c0.6-0.3,1.2-0.5,1.9-0.5c0.1,0.2,0.4,0.1,0.5,0.1C52.7,55.4,51.9,55.6,51.1,55.8z
		"/>
	<path class="st11" d="M35.7,94.3c0,0.1,0,0.1,0,0.2c-0.6,0.1-1.1,0.3-1.7,0.4c-0.2-0.1-0.4-0.3,0-0.3
		C34.6,94.5,35.2,94.4,35.7,94.3z"/>
	<path class="st13" d="M62.2,99.3c-0.2-0.2-0.5,0-0.7-0.1c0.7-0.1,1.5-0.3,2.2-0.4C63.2,99.1,62.7,99.3,62.2,99.3z"/>
	<path class="st13" d="M68.6,77.8c-0.1-0.2,0.1-0.3,0.3-0.4c0.6-0.1,1.1-0.3,1.7-0.3C69.9,77.5,69.2,77.6,68.6,77.8z"/>
	<path class="st13" d="M45.8,57.3c0.7-0.4,1.3-0.7,2.1-0.7C47.3,57.1,46.5,57.1,45.8,57.3z"/>
	<path class="st13" d="M114.3,107.2c-0.3-0.2-0.6,0-0.9-0.1c0.7-0.1,1.4-0.3,2.2-0.4C115.2,107,114.7,107.1,114.3,107.2z"/>
	<path class="st13" d="M87.4,104.4c-0.1-0.1-0.3-0.1-0.4-0.1c0.7-0.1,1.3-0.4,2-0.4C88.5,104.1,88,104.3,87.4,104.4z"/>
	<path class="st12" d="M73.4,81.7c0.1,0,0.2,0,0.2,0c-0.4,0.3-0.8,0.7-1.4,0.8C72.5,82,72.9,81.9,73.4,81.7z"/>
	<path class="st13" d="M94.1,66.6c0.1,0.1,0.2,0.1,0.3,0.1c-0.5,0.2-1.1,0.3-1.7,0.4C93.1,66.9,93.6,66.7,94.1,66.6z"/>
	<path class="st11" d="M47.5,69.4c0.4-0.3,0.9-0.4,1.4-0.4C48.6,69.6,48,69.3,47.5,69.4z"/>
	<path class="st12" d="M101.7,93.9c0,0.1,0,0.2,0,0.2c-0.4,0.2-0.8,0.2-1.2,0.3C100.8,94.1,101.2,94,101.7,93.9z"/>
	<path class="st13" d="M87.6,82c-0.2,0.2-0.5,0.4-0.8,0.4C87,82.1,87.2,81.9,87.6,82z"/>
	<path class="st13" d="M88,81.5c0.1,0,0.2,0,0.2,0c-0.2,0.1-0.3,0.3-0.6,0.3C87.7,81.7,87.9,81.6,88,81.5z"/>
	<path class="st7" d="M98.4,91.6c-0.1,0.1-0.2,0.3-0.4,0.3C98,91.6,98.3,91.7,98.4,91.6z"/>
	<path class="st12" d="M102.4,94.1c0.1,0,0.2,0,0.3-0.1C102.5,94.1,102.5,94.2,102.4,94.1z"/>
	<path class="st11" d="M112.2,65.1c-0.1,0.1-0.1,0.2-0.3,0.2C112,65.1,112.1,65.2,112.2,65.1z"/>
	<path class="st12" d="M72.2,82.5c-0.1,0.1-0.2,0.2-0.4,0.1C72,82.6,72.1,82.5,72.2,82.5z"/>
	<polygon class="st11" points="48.9,69 48.9,68.9 48.9,68.9 	"/>
	<path class="st11" d="M36,94.5C36.1,94.5,36.1,94.5,36,94.5C36.1,94.5,36.1,94.5,36,94.5L36,94.5z"/>
	<path class="st11" d="M112.4,65.1c0,0-0.1,0.1-0.1,0.1C112.3,65.1,112.3,65.1,112.4,65.1z"/>
	<path class="st7" d="M112.7,104c0,0.1-0.1,0.1-0.2,0.1C112.5,104,112.6,104,112.7,104z"/>
	<path class="st13" d="M87.7,81.8c0,0.1-0.1,0.1-0.1,0.1C87.6,81.9,87.6,81.8,87.7,81.8z"/>
	<path class="st14" d="M71.3,74.6c-0.6,0.4-1.2,0.7-2,1c1.4-3.6,3.6-6.4,6.7-8.5c0.7,0.3,0.6,0.9,0.5,1.4c-0.2,1.1-0.8,1.9-1.5,2.7
		c-0.6,0.7-1.3,1.3-1.9,1.9C72.6,73.7,71.9,74.2,71.3,74.6z"/>
	<path class="st8" d="M73.2,73.3c0.6-0.6,1.3-1.3,1.9-1.9c0.7-0.8,1.3-1.7,1.5-2.7c0.1-0.5,0.3-1.1-0.5-1.4c0.1-0.1,0.2-0.1,0.3-0.2
		c0.4-0.2,0.8-0.6,1.2-0.2c0.4,0.4,0.3,0.9,0.2,1.3c-0.3,1.4-1.2,2.5-2.2,3.5c-0.7,0.7-1.3,1.4-2.2,1.9
		C73.3,73.4,73.2,73.3,73.2,73.3z"/>
	<path class="st11" d="M73.2,73.3c0.1,0.1,0.1,0.1,0.2,0.2c-0.6,0.5-1.2,1-2,1.2C71.9,74.2,72.6,73.7,73.2,73.3z"/>
	<path class="st14" d="M77.3,94.5c-1.1,1-2.5,1.3-4,1.6c0.5-1.4,1.2-2.6,1.2-4.1c0.7-0.1,1.4,0.2,2,0.4C77.8,92.8,78,93.3,77.3,94.5
		z"/>
	<path class="st8" d="M77.3,94.5c0.7-1.2,0.5-1.7-0.8-2.1c-0.7-0.2-1.3-0.4-2-0.4c-0.1-0.1-0.2-0.3-0.4-0.5c1.5-0.1,2.9,0,4.2,0.7
		c0.8,0.4,0.9,1.2,0.3,1.8C78.1,94.2,77.7,94.5,77.3,94.5z"/>
	<path class="st2" d="M69.4,103.4c-0.1,0-0.1-0.1-0.1-0.1C69.4,103.3,69.4,103.3,69.4,103.4z"/>
	<path class="st2" d="M40.8,92.8c0.1,0,0.2,0,0.1,0.1C40.8,93,40.8,92.9,40.8,92.8z"/>
	<path class="st14" d="M62.2,96.8c-0.6,0.6-1.3,0.8-2.1,0.9c-0.6,0.1-0.7,0-0.5-0.6c0.5-1.5,1.1-3.1,1.6-4.6
		c0.6,0.1,1.3,0.1,1.9,0.3c1.1,0.3,1.3,0.7,0.8,1.7C63.6,95.4,62.9,96.1,62.2,96.8z"/>
	<path class="st8" d="M62.2,96.8c0.7-0.7,1.4-1.4,1.8-2.3c0.5-1.1,0.3-1.4-0.8-1.7c-0.6-0.2-1.3-0.2-1.9-0.3c-0.2-0.5,0-0.6,0.5-0.5
		c1,0.1,2,0.1,3,0.4c0.4,0.1,0.6,0.4,0.6,0.8C65.3,94.3,63.2,96.8,62.2,96.8z"/>
	<path class="st14" d="M122,109.1c-0.6,0.5-1.2,0.5-1.7,0c-0.4-0.5-0.4-1.3,0.1-1.8c0.5-0.5,1.2-0.5,1.7,0
		C122.6,107.8,122.6,108.5,122,109.1c-0.2-0.4-0.6-0.7-0.1-1.2c0.2-0.2,0-0.6-0.4-0.6c-0.3-0.1-0.8-0.2-0.9,0.2
		c-0.1,0.5-0.1,1,0,1.5c0.2,0,0.2-0.1,0.2-0.2c0-0.1-0.1-0.4,0.1-0.4c0.2-0.1,0.3,0.2,0.4,0.3C121.5,109,121.7,109.2,122,109.1z"/>
	<path class="st10" d="M122,109.1c-0.3,0.1-0.5-0.1-0.6-0.4c-0.1-0.1-0.1-0.4-0.4-0.3c-0.2,0.1-0.1,0.3-0.1,0.4c0,0.1,0,0.2-0.2,0.2
		c-0.2-0.5-0.2-1.1,0-1.5c0.1-0.4,0.6-0.3,0.9-0.2c0.3,0.1,0.6,0.4,0.4,0.6C121.4,108.4,121.8,108.7,122,109.1
		C122,109.1,122,109.1,122,109.1z M121.6,107.8c0-0.2-0.1-0.2-0.3-0.2c-0.1,0-0.3-0.1-0.4,0.2c0,0.2,0,0.3,0.2,0.3
		C121.3,108,121.5,108,121.6,107.8z"/>
	<path class="st2" d="M121.6,107.8c-0.1,0.2-0.3,0.2-0.4,0.2c-0.2,0-0.2-0.1-0.2-0.3c0-0.2,0.2-0.2,0.4-0.2
		C121.5,107.6,121.6,107.6,121.6,107.8z"/>
</g>
</svg>
